<?xml version="1.0" encoding="utf-8"?>
<!-- Generator: Adobe Illustrator 22.1.0, SVG Export Plug-In . SVG Version: 6.00 Build 0)  -->
<svg version="1.1" id="Layer_1" xmlns="http://www.w3.org/2000/svg" xmlns:xlink="http://www.w3.org/1999/xlink" x="0px" y="0px"
	 viewBox="0 0 500 500" style="enable-background:new 0 0 500 500;" xml:space="preserve">
<style type="text/css">
	.st0{fill:#E0DFE6;}
	.st1{fill:#525D7D;}
</style>
<g>
	<path class="st0" d="M241.9,342.6c-0.8-7.5-11.4-7.7-11.9,0c-0.5,8.7-2.9,18-6.3,27.2c-1.1,0-2.3,0.2-3.6,0.7
		c-17.6,6.7-28.8,22.3-39.3,37.3c-6.7,9.5-21,36.4-34.3,36.9c-7.3,0.2-15.9-8.3-21.7-11.8c-2.1-1.3-4.2-2.5-6.3-3.6
		c-2.6-2.6-4.9-4.9-7.1-6.8c-15.7-13.8-31-35.4-52.8-38.8c-2.5-0.4-4.7-0.1-6.8,0.6c-1.7-0.2-3.3,0.9-4.1,2.6
		c-1.8,1.8-3,4.4-3.2,7.5C42.9,424.2,78,448,98.6,464.8c22.9,18.6,47.5,37.5,78.4,26.2c26.7-9.7,45.3-35.6,56.9-60.3
		c6.2-13.1,10-26.5,11.7-40.9C247.7,372.8,243.6,359.1,241.9,342.6z"/>
	<path class="st0" d="M450.5,280.7c-1.8-3-3.9-5.8-6.1-8.5c-8.4-10.1-21.1-15-29.1-24.9c-3.6-4.4-11,0.4-9.4,5.5
		c2.8,9.1,8.9,15.4,14.2,23.2c4.3,6.4,8,13.3,10.9,20.5c-1.9,11.7,2.5,23.2,5.6,34.9c-9.7,9.7-16.4,21.9-25.2,32.5
		c-10.2,12.4-22.5,23.1-35.1,33c-11.2,8.8-29.4,29.3-44.6,25.2c-17.1-4.6-26.4-23.2-38.3-34.5c-1.8-1.7-4.3-0.3-4.5,1.9
		c-1.2,11.4,3.3,23.7,10.2,34.3c4.1,11.1,8.3,22.2,12.2,33.3c4.7,13.5,11.9,25.2,26.7,28.9c33.1,8.3,66.6-16.7,89.7-37.3
		c23.9-21.2,48.4-47.1,55.8-79.2C489.8,342.2,483.9,288.8,450.5,280.7z"/>
	<path class="st0" d="M354,326.5c-4.9-32-21.5-63.7-43.7-86.9c-3.2-3.4-9.7,0.1-8.1,4.7c10.4,29.7,17.9,59.1,25,89.6
		C331.3,351.8,356.6,343.8,354,326.5z"/>
	<path class="st0" d="M401.6,314.6c-7.2-37.9-30.2-71.6-51.6-102.7c-3-4.3-11.4-1.7-9.1,3.8c14.5,34.6,19.4,71.7,30.7,107.2
		c1.6,4.9,5.5,9.8,10.9,10.9c6.8,1.3,9.7,0.3,15.1-4C402.1,326.2,402.6,319.6,401.6,314.6z"/>
	<path class="st0" d="M190.7,243.3c-0.8-1.6-3-1.7-4.2-0.5c-13.1,12.6-17.1,34-21.9,50.8c-5.7,19.8-13.1,42.1-13.2,62.9
		c0,5.1,2.9,11.6,7.9,13.7c2.8,1.2,5,2,8,2.2c5,0.2,11.7-3.1,13.7-7.9c8.5-19.5,10.6-42.7,12.7-63.8
		C195.6,282.5,199.3,260.2,190.7,243.3z"/>
	<path class="st0" d="M149.7,238.5c-12.6,17.7-23.9,35.6-34.7,54.4c-8.6,14.9-21.2,30-13.8,47.5c1.7,3.9,6.6,4.7,10.2,4.2
		c18.4-3,24.8-26.5,31-41.4c8.3-19.7,14.1-39.2,17.8-60.3C161.4,236.4,153.6,233,149.7,238.5z"/>
	<path class="st0" d="M103.4,239.4c-12.9,19.2-34,33.2-39.7,56.6c-1.7,7.2,5.6,12.2,11.9,9.2c23.3-11.2,29.1-37.7,38.5-59.5
		C117.4,238.5,108,232.6,103.4,239.4z"/>
	<path class="st0" d="M44.4,255.3c-4.1,0.2-7.5,3.3-7.5,7.5v10c0,3.9,3.4,7.7,7.5,7.5c4.1-0.2,7.5-3.3,7.5-7.5v-10
		C51.8,258.9,48.4,255.1,44.4,255.3z"/>
	<path class="st0" d="M178.2,154.1c-2.3-11.4-8.9-29.3-21.5-32.2c-8.8-2-15.1,1.7-16.9,10.8c-2.4,12.7,15.7,25.8,7.9,37.9
		c-9.5,14.8-53.7-2.8-49.5,24.5c0.1,0.7,1,1.3,1.7,1.3c5.8,0,12.4,3.4,17.9,4.7c6.8,1.6,13.5,2.7,20.5,2.3
		c12.3-0.6,24.8-5.1,32.8-14.8C179,179,180.6,166,178.2,154.1z"/>
	<path class="st0" d="M147,79.9c-6.3-4.8-14.5-4.1-22-4.5c-7.1-0.3-14.4-0.5-21.1,2.3c-4.6,1.9-8.2,8.5-3.3,12.5
		c5.9,4.7,12.4,7,19.7,8.9c7.8,2,16.1,5.1,23.9,2.1C154.1,97.4,155.2,86.2,147,79.9z"/>
	<path class="st0" d="M283.2,136.5c-0.9-3.4-1.8-6.8-2.7-10.1c1.1-5,1.1-10.5,1.3-15.8c0.4-12,0.2-23.8,1.2-35.8
		c0.6-7.3-10.1-9.7-13.7-4.6c-5.3-5.1-14.8-3.8-20.7,3.9c-4.7,6.2-7,12.1-14.1,16.3c-7.8,4.6-16.9,5.4-25.7,3.5
		c-5.9-1.3-11.7,6.4-6.4,10.9c11.7,10,27,13.8,42,9c0.7-0.2,1.4-0.5,2.1-0.8c-1.2,5.8-0.7,11.5,0.6,18.3c1.3,6.6,2.3,15.6,4.6,23
		c-3.9,1.1-7.8,2.1-11.7,3.2c-10.4,2.9-20.6,6.2-30.8,9.6c-4.2,1.4-6.3,8.4-1.4,10.5c13,5.8,26.4,9,40.8,8.5
		c11.9-0.4,28.2-1.1,36-11.4C292.6,164.1,286.2,148,283.2,136.5z"/>
	<path class="st0" d="M249,33.7c-24-9.7-45.4,12-53.2,33c-2.1,5.5,5.9,7.8,8.8,3.7c10.5-14.5,28.8-18,44.4-24.4
		C255,43.6,255.1,36.2,249,33.7z"/>
	<path class="st0" d="M400.4,143c-1.7-5.2-4.2-9.8-5.3-15.3c-1.2-6.2-1.1-12.6-2.1-18.8c-0.1-0.8-0.4-1.5-0.6-2.2
		c-0.1-10.5-5.9-21.7-10.7-30.6c-4.3-7.9-16.4-2.4-14.3,6c2.3,9.1-2.3,17.8-3.3,26.8c-5,1.8-10,3.6-14.9,5.3
		c-5.5,2-9.1,7.3-7.5,13.2c1.5,5.4,7.7,9.4,13.2,7.5c4.7-1.6,9.4-3.2,14.1-4.8c0.2,0.8,0.3,1.6,0.6,2.4c1.1,3.8,2.5,7.4,4,11
		c0.8,2,1.6,3.9,2.6,5.7c1.4,2.5,1.3,2.5-0.5,0c-5.3,4.6-19,5.7-25.7,7.7c-7.2,2.2-13.9,3.9-19.6,9c-4.2,3.8-1.4,9.7,3,11.5
		c9.4,3.8,21.4,0.8,31.1-1.3c9.9-2.1,22.3-3.8,30.2-10.7C401.7,159.4,403.1,151.4,400.4,143z"/>
	<path class="st0" d="M358,64.6c-9.3-5.1-17.9,1.4-23.9,8.4c-2.5,2.9-5,6-7,9.3c-1,1.6-1.8,3.2-2.4,5c-0.4,1.2-0.6,4.7-0.6,4.7
		c-2.7,5.8,4.3,12.3,9.3,7.2c-0.8-0.1-0.5-0.1,0.9-0.3c0.7-0.3,1.3-0.6,2-0.8c1.6-0.8,3.1-2,4.5-3.1c2.3-1.9,4.7-3.6,7.2-5.2
		c7-4.3,14.4-7.8,14.6-17.1C362.7,69.5,360.8,66.2,358,64.6z"/>
	<g>
		<g>
			<path class="st1" d="M233.4,116.1c-24.2,0-43.7-18.1-44.6-41.6c-0.7-19.8,11.3-38.4,29.4-45.2l0,0c2.6-1,5.5-1.6,8.9-1.9
				c2.6-0.2,5.3-0.2,8.6-0.1c16.9,0.8,41.5,16.9,41.6,44c0.1,23.5-20.1,44.3-43.1,44.7C233.9,116.1,233.6,116.1,233.4,116.1z
				 M231.5,37.3c-1.3,0-2.5,0-3.7,0.1c-2.4,0.2-4.4,0.6-6.1,1.2c0,0,0,0,0,0c-14.1,5.3-23.5,19.9-22.9,35.5c0.7,18,15.8,32,34.6,32
				c0.2,0,0.4,0,0.6,0c17.8-0.3,33.4-16.5,33.3-34.7c-0.1-22.7-21.3-33.6-32.1-34.1C233.9,37.3,232.7,37.3,231.5,37.3z"/>
		</g>
		<g>
			<path class="st1" d="M204.9,175.1c-2.4,0-4.5-1.7-4.9-4.2c-1-5.7-1.4-11.5-1.4-17.3c0-20.4,6-37.7,17-48.7c1.9-2,5.1-1.9,7.1,0
				c2,1.9,2,5.1,0,7.1c-9.1,9.1-14.1,23.9-14.1,41.6c0,3.6,0.2,7.2,0.6,10.8c17.4-2.4,39.2-4.9,61.3-4.9
				c-0.7-22.9-8.1-41.5-20.2-50.3c-2.2-1.6-2.7-4.7-1.1-7c1.6-2.2,4.7-2.7,7-1.1c22,16,24.4,48.6,24.4,61.8l0,1.7
				c0,1.3-0.6,2.6-1.5,3.5c-1,0.9-2.3,1.4-3.6,1.4c-25.2-0.4-50.7,2.7-69.8,5.5C205.4,175.1,205.2,175.1,204.9,175.1z"/>
		</g>
		<g>
			<path class="st1" d="M196.9,92.3c-0.8,0-1.6-0.2-2.3-0.6c-2.4-1.3-3.4-4.3-2.1-6.7c13.1-25.1,41.5-36.7,60.3-44.4
				c2.6-1,5.5,0.2,6.5,2.7c1,2.6-0.2,5.5-2.7,6.5c-23.1,9.4-44.7,19.6-55.2,39.8C200.4,91.3,198.7,92.3,196.9,92.3z"/>
		</g>
		<g>
			<path class="st1" d="M121.7,138.1c-0.3,0-0.6,0-1,0c-18.1-0.5-32.2-14.5-32.8-32.6C87.4,88.8,98.2,74,113.4,70.4l0,0
				c3.4-0.8,6.4-1.1,9-1.2c8.6,0,18,4.3,24.5,11.1c6.6,6.8,9.9,15.5,9.6,25.1C156.1,121.4,142,138.1,121.7,138.1z M122.3,79.1
				c-1.9,0-3.9,0.3-6.6,0.9h0c-10.7,2.5-18.2,13.1-17.8,25.1c0.4,13,10.1,22.6,23,23c14.7,0.2,25.3-11.8,25.6-23.1
				c0.2-8.7-3.6-14.6-6.8-17.9C135.1,82.3,128.2,79.2,122.3,79.1C122.4,79.1,122.3,79.1,122.3,79.1z"/>
		</g>
		<g>
			<path class="st1" d="M98.6,186.8c-1.1,0-2.2-0.4-3.1-1.1c-1.1-0.9-1.8-2.2-1.9-3.6c-0.2-3-0.3-6-0.3-8.8c0-21.3,6.7-35.6,20-42.6
				c2.4-1.3,5.5-0.3,6.7,2.1c1.3,2.4,0.3,5.5-2.1,6.7c-9.9,5.2-14.6,16.2-14.6,33.7c0,0.8,0,1.7,0,2.6c16.9-2.6,32.4-4.2,47.3-4.6
				c-1.8-14.8-8.3-27-18.3-34c-2.3-1.6-2.8-4.7-1.2-7c1.6-2.3,4.7-2.8,7-1.2c13.6,9.6,21.9,26.6,22.9,46.8c0.1,1.4-0.4,2.7-1.3,3.7
				c-0.9,1-2.2,1.6-3.6,1.6c-17.5,0.2-36,2-56.6,5.5C99.2,186.8,98.9,186.8,98.6,186.8z"/>
		</g>
		<g>
			<path class="st1" d="M146.9,104.1c-0.2,0-0.4,0-0.6,0c-11.1-1.2-21.9-3.6-32.2-5.9c-6.5-1.4-12.7-2.8-19-3.9
				c-2.7-0.5-4.5-3.1-4-5.8c0.5-2.7,3.1-4.5,5.8-4c6.5,1.1,13.1,2.6,19.4,4c10.1,2.2,20.6,4.6,31.2,5.7c2.7,0.3,4.7,2.8,4.4,5.5
				C151.6,102.2,149.5,104.1,146.9,104.1z"/>
		</g>
		<g>
			<path class="st1" d="M352.9,127.2c-0.4,0-0.7,0-1.1,0c-15.7-0.5-32.2-11.4-33.6-31.2c-1.2-17.6,9.8-33.9,26.2-38.7l0,0
				c2.6-0.8,5.4-1.2,8.1-1.2c0.2,0,0.4,0,0.6,0c17.8,0,34.9,15.2,35.9,32.2c0.2,2.7,0.2,5,0,7.2
				C387.8,115.3,369.6,127.2,352.9,127.2z M353.1,66c-0.1,0-0.3,0-0.4,0c-1.9,0-3.7,0.3-5.5,0.8c0,0,0,0,0,0
				c-11.7,3.5-19.9,15.7-19,28.5c1,13.9,12.8,21.5,24,21.9c12.3,0.2,26.1-8.5,26.9-22.4c0.1-1.8,0.1-3.8,0-6
				C378.3,77.2,365.5,66,353.1,66z"/>
		</g>
		<g>
			<path class="st1" d="M331.2,166.9c-1,0-2-0.3-2.8-0.9c-1.2-0.8-2-2.1-2.1-3.5c-0.5-4.2-0.8-7.9-0.8-11.5
				c0-15.5,4.9-26.5,14.6-32.7c2.3-1.5,5.4-0.8,6.9,1.5c1.5,2.3,0.8,5.4-1.5,6.9c-6.7,4.3-10,12.3-10,24.3c0,1.5,0.1,3.1,0.2,4.7
				c11.1-2.3,22.4-3.1,33.3-3.9c4.2-0.3,8.5-0.6,12.8-1c-0.7-9-3.7-21.6-14-30c-2.2-1.7-2.5-4.9-0.8-7c1.7-2.2,4.9-2.5,7-0.8
				c11.5,9.2,17.9,24.2,18,42.2c0,2.6-1.9,4.7-4.4,5c-5.9,0.7-12,1.1-17.8,1.5c-12.4,0.9-25.2,1.9-37.2,5
				C332,166.8,331.6,166.9,331.2,166.9z"/>
		</g>
		<g>
			<path class="st1" d="M326.1,108.9c-1,0-2-0.3-2.9-0.9c-2.3-1.6-2.8-4.7-1.2-7c11.9-16.9,30.3-29.8,51.6-36.2
				c2.6-0.8,5.4,0.7,6.2,3.3c0.8,2.6-0.7,5.4-3.3,6.2c-19.2,5.8-35.6,17.3-46.3,32.4C329.2,108.2,327.6,108.9,326.1,108.9z"/>
		</g>
		<g>
			<path class="st1" d="M151.5,484.5c-38.7,0-136-112.7-136-129.8c0-4.3,0.6-7.8,1.3-11.5c0.7-4.1,1.5-8.3,1.5-14.5
				c0-7.8-1.2-16.1-2.3-24.2c-1.1-8.3-2.3-16.8-2.3-24.9c0-29.9,20.1-49.3,51.3-49.3c6.8,0,11.4,0.6,16,1.9c2.6,0.8,4.1,3.6,3.4,6.2
				c-0.8,2.6-3.6,4.2-6.2,3.4c-3.6-1.1-7.4-1.5-13.1-1.5c-25.9,0-41.3,14.7-41.3,39.3c0,7.5,1.1,15.3,2.2,23.6
				c1.2,8.4,2.4,17.1,2.4,25.5c0,7-0.9,11.9-1.7,16.2c-0.6,3.4-1.1,6.3-1.1,9.7c1.5,11.8,92,119.8,126,119.8
				c21.7,0,65.8-43.8,65.8-94.5c0-2.8,2.2-5,5-5c2.8,0,5,2.2,5,5c0,34-17.3,60.4-27.6,73.1C184.2,472.2,165.3,484.5,151.5,484.5z"/>
		</g>
		<g>
			<path class="st1" d="M77.6,317.3c-0.8,0-1.5-0.2-2.2-0.5c-2.5-1.2-3.5-4.2-2.2-6.7c4.3-8.5,9.7-17,14.9-25.1
				c11.6-18.1,23.7-36.8,23.7-57.8c0-2.6-1.4-2.9-2.9-2.9c-18,0-28.6,19.6-38,36.8c-7.2,13.3-13.5,24.8-22.9,28.5
				c-2.6,1-5.5-0.2-6.5-2.8c-1-2.6,0.2-5.5,2.8-6.5c6-2.4,11.8-12.9,17.8-24c10.2-18.7,22.9-42.1,46.8-42.1
				c7.6,0,12.9,5.3,12.9,12.8c0,24-12.8,43.9-25.2,63.2c-5.3,8.3-10.4,16.1-14.4,24.2C81.2,316.3,79.5,317.3,77.6,317.3z"/>
		</g>
		<g>
			<path class="st1" d="M95.1,289.1c-1.3,0-2.6-0.5-3.5-1.5c-1.9-1.9-1.9-5.1,0-7.1c3.8-3.8,9-10.2,15-17.6
				c22.1-27.2,40.3-48,55.9-48c7.6,0,13.1,4.3,15.6,12.1c0.8,2.6-0.6,5.4-3.2,6.3c-2.6,0.8-5.4-0.6-6.3-3.2
				c-1.4-4.3-3.4-5.2-6.1-5.2c-12.1,0-33.8,26.7-48.2,44.3c-6.2,7.6-11.5,14.2-15.7,18.4C97.6,288.6,96.3,289.1,95.1,289.1z"/>
		</g>
		<g>
			<path class="st1" d="M115.6,350.7c-0.6,0-1.3-0.1-1.9-0.4c-2.5-1.1-3.7-4-2.7-6.5c42.6-102.1,53.5-126.3,77.7-126.3
				c13.8,0,21.4,8.1,21.4,22.8c0,7.2-12.5,72.7-13.3,76.2c-0.6,2.7-3.3,4.4-6,3.7c-2.7-0.6-4.4-3.3-3.7-6c1.3-5.6,13.1-68.6,13.1-74
				c0-10.6-4.6-12.8-11.4-12.8c-16.9,0-27.3,21.2-68.5,120.1C119.4,349.6,117.6,350.7,115.6,350.7z"/>
		</g>
		<g>
			<path class="st1" d="M223.3,389.9c-2.6,0-4.8-2-5-4.7c-0.1-1.9-0.2-3.8-0.2-5.8c0-9.7,1.4-20,2.7-29.9c1.3-9.8,2.7-19.9,2.7-29.2
				c0-18.9-4.3-24.5-6.9-24.8c-8.7-1.1-31.4,26.7-45.3,85.6c-0.6,2.7-3.3,4.3-6,3.7c-2.7-0.6-4.3-3.3-3.7-6
				c13-55.4,37-95.5,56.1-93.3c7.2,0.8,15.7,7.5,15.7,34.7c0,10.1-1.4,20.5-2.8,30.6c-1.4,10-2.6,19.5-2.6,28.5c0,1.7,0,3.4,0.2,5.1
				c0.2,2.7-1.9,5.1-4.7,5.3C223.5,389.9,223.4,389.9,223.3,389.9z"/>
		</g>
		<g>
			<path class="st1" d="M341.6,469.7c-37.6,0-87.9-108.4-87.9-136.8c0-16,9.8-23.2,19.5-23.2c17.4,0,33.3,33.3,50.7,73.6
				c2.9,6.8,5.5,12.7,7.6,17.1c1.2,2.5,0.1,5.5-2.3,6.7c-2.5,1.2-5.5,0.1-6.7-2.3c-2.2-4.6-4.8-10.5-7.7-17.4
				c-9.5-21.9-29.2-67.6-41.5-67.6c-6,0-9.5,4.9-9.5,13.2c0,10.9,10.8,42,28.1,73.3c18.4,33,37.4,53.6,49.8,53.6
				c26.5,0,117.6-92.8,119.9-103.6c0-8.4,0.2-17.2,0.5-25.8c0.2-8.5,0.5-17.2,0.5-25.8c0-58.5-12.6-70.5-31.4-70.5
				c-4.8,0-10,0.8-15,1.5c-6.1,0.9-12.5,1.9-18.5,1.5c-2.8-0.2-4.8-2.5-4.7-5.3c0.2-2.7,2.5-4.8,5.3-4.7c5.1,0.3,10.5-0.5,16.4-1.4
				c5.4-0.8,11-1.6,16.5-1.6c41.4,0,41.4,52.4,41.4,80.5c0,8.7-0.3,17.6-0.5,26.1c-0.2,8.5-0.5,17.2-0.5,25.8
				C471.5,372.1,373.7,469.7,341.6,469.7z"/>
		</g>
		<g>
			<path class="st1" d="M343.7,356.6c-2,0-3.8-1.2-4.6-3.1c-43.3-104-54.3-120.6-67.1-120.6c-7.2,0-7.2,3.6-7.2,5.2
				c0.2,4.6,13.7,55.3,33.3,89.5c1.4,2.4,0.5,5.4-1.9,6.8c-2.4,1.4-5.4,0.5-6.8-1.9c-19.5-34.1-34.6-87.6-34.6-94.5
				c0-9.2,6.7-15.2,17.2-15.2c18.7,0,28.7,12.5,76.3,126.8c1.1,2.5-0.1,5.5-2.7,6.5C345,356.5,344.3,356.6,343.7,356.6z"/>
		</g>
		<g>
			<path class="st1" d="M385.7,328.5c-2,0-3.9-1.2-4.6-3.2c-39-98.9-52.7-116.5-72.1-116.5c-6,0-6,0-6,11.4
				c0,17.4,6.8,35.1,13.3,52.2c0.9,2.4,1.8,4.7,2.7,7c1,2.6-0.3,5.5-2.9,6.4c-2.6,1-5.5-0.3-6.4-2.9c-0.9-2.3-1.7-4.6-2.6-6.9
				c-6.5-17.1-14-36.5-14-55.8c0-13.2,0.8-21.3,16-21.3c28.4,0,44.4,29.2,81.3,122.8c1,2.6-0.3,5.5-2.8,6.5
				C386.9,328.4,386.3,328.5,385.7,328.5z"/>
		</g>
		<g>
			<path class="st1" d="M433.7,292c-0.8,0-1.5-0.2-2.2-0.5c-14-7-24.2-22.8-35-39.5c-13.7-21.2-29.2-45.1-54.9-54.3
				c-0.3,1.3-0.6,3.2-0.6,5.6c0,9.7,5,18.2,10.2,27.3c1.6,2.7,3.1,5.4,4.6,8.2c1.3,2.4,0.4,5.5-2.1,6.8c-2.4,1.3-5.5,0.4-6.8-2.1
				c-1.4-2.7-2.9-5.3-4.4-7.8c-5.7-9.8-11.6-19.9-11.6-32.3c0-14.6,6.5-16.2,9.2-16.2c0.7,0,1.3,0.1,2,0.3
				c30.5,9.6,47.6,36,62.6,59.2c10,15.5,19.5,30.2,31.1,36c2.5,1.2,3.5,4.2,2.2,6.7C437.3,291,435.6,292,433.7,292z M339.2,196.8
				C339.3,196.8,339.3,196.8,339.2,196.8C339.3,196.8,339.3,196.8,339.2,196.8z"/>
		</g>
		<g>
			<path class="st1" d="M37.3,183.3c-2.4,0-4.5-1.7-4.9-4.1c-0.8-4.5-1.3-9.2-1.6-13.8c-0.2-2.7,1.9-5.1,4.7-5.3
				c2.8-0.2,5.1,1.9,5.3,4.7c0.3,4.2,0.8,8.5,1.5,12.7c0.5,2.7-1.3,5.3-4.1,5.8C37.9,183.3,37.6,183.3,37.3,183.3z M37.6,140.3
				c-0.3,0-0.6,0-0.9-0.1c-2.7-0.5-4.5-3.1-4-5.8c0.8-4.5,1.9-9,3.3-13.4c0.8-2.6,3.6-4.1,6.2-3.3c2.6,0.8,4.1,3.6,3.3,6.2
				c-1.2,4.1-2.2,8.3-3,12.4C42.1,138.6,40,140.3,37.6,140.3z M52.5,100c-0.8,0-1.7-0.2-2.5-0.7c-2.4-1.4-3.2-4.4-1.9-6.8
				c2.2-3.9,4.7-7.9,7.4-11.6c1.6-2.3,4.7-2.8,7-1.2c2.3,1.6,2.8,4.7,1.2,7c-2.5,3.5-4.8,7.2-6.9,10.8C56,99.1,54.3,100,52.5,100z
				 M79.3,66.2c-1.3,0-2.7-0.5-3.6-1.6c-1.9-2-1.8-5.2,0.2-7.1c3.3-3.1,6.8-6.1,10.4-9c2.2-1.7,5.3-1.3,7,0.8c1.7,2.2,1.3,5.3-0.8,7
				c-3.4,2.6-6.6,5.5-9.8,8.4C81.7,65.7,80.5,66.2,79.3,66.2z M114.6,41.5c-1.8,0-3.6-1-4.5-2.8c-1.2-2.5-0.2-5.5,2.2-6.7
				c4.1-2.1,8.3-3.9,12.6-5.6c2.6-1,5.5,0.3,6.5,2.8c1,2.6-0.3,5.5-2.8,6.5c-4,1.5-7.9,3.3-11.7,5.2
				C116.1,41.3,115.4,41.5,114.6,41.5z M155.6,28.2c-2.4,0-4.5-1.7-4.9-4.2c-0.4-2.7,1.4-5.3,4.1-5.7c4.4-0.7,8.9-1.2,13.4-1.5
				c2.8-0.1,5.1,1.9,5.3,4.7c0.2,2.8-1.9,5.1-4.7,5.3c-4.1,0.3-8.3,0.7-12.4,1.4C156.1,28.1,155.8,28.2,155.6,28.2z"/>
		</g>
		<g>
			<path class="st1" d="M436.4,129.7c-2.4,0-4.5-1.7-4.9-4.1c-0.8-4.4-1.6-8.7-2.4-13c-0.5-2.7,1.2-5.3,3.9-5.9
				c2.7-0.5,5.3,1.2,5.9,3.9c0.9,4.3,1.7,8.7,2.5,13.2c0.5,2.7-1.3,5.3-4,5.8C437,129.7,436.7,129.7,436.4,129.7z M426.4,87.7
				c-2.1,0-4-1.3-4.7-3.3c-1.5-4.3-3.1-8.1-4.8-11.8c-1.2-2.5-0.1-5.5,2.3-6.7c2.5-1.2,5.5-0.1,6.7,2.3c1.9,4,3.6,8.2,5.3,12.8
				c0.9,2.6-0.5,5.4-3.1,6.4C427.5,87.6,427,87.7,426.4,87.7z M404.3,51c-1.3,0-2.6-0.5-3.5-1.5c-2.9-2.9-6.1-5.7-9.5-8.2
				c-2.2-1.6-2.7-4.8-1-7c1.6-2.2,4.8-2.7,7-1c3.8,2.8,7.4,5.9,10.6,9.1c1.9,2,1.9,5.1,0,7.1C406.9,50.5,405.6,51,404.3,51z
				 M368.1,28.1c-0.6,0-1.2-0.1-1.8-0.4c-3.8-1.5-7.9-3-12.2-4.3c-2.6-0.8-4.1-3.6-3.3-6.2c0.8-2.6,3.6-4.1,6.2-3.3
				c4.5,1.4,8.8,2.9,12.9,4.5c2.6,1,3.8,3.9,2.8,6.5C372,26.9,370.1,28.1,368.1,28.1z M326.5,16.9c-0.3,0-0.6,0-0.8-0.1
				c-4.1-0.7-8.5-1.4-12.9-1.9c-2.7-0.4-4.7-2.9-4.3-5.6c0.3-2.7,2.9-4.7,5.6-4.3c4.6,0.6,9.1,1.3,13.3,2c2.7,0.5,4.5,3,4.1,5.8
				C331,15.2,328.9,16.9,326.5,16.9z"/>
		</g>
	</g>
</g>
</svg>
