<?xml version="1.0" encoding="utf-8"?>
<!-- Generator: Adobe Illustrator 22.1.0, SVG Export Plug-In . SVG Version: 6.00 Build 0)  -->
<svg version="1.1" id="Layer_1" xmlns="http://www.w3.org/2000/svg" xmlns:xlink="http://www.w3.org/1999/xlink" x="0px" y="0px"
	 viewBox="0 0 500 500" style="enable-background:new 0 0 500 500;" xml:space="preserve">
<style type="text/css">
	.st0{fill:#E0DFE6;}
	.st1{fill:#525D7D;}
</style>
<g>
	<g>
		<path class="st0" d="M131.1,112.2c-0.1-0.9-0.1-1.8-0.2-2.6c1.6-2,2.4-4.7,1.6-7.3c-0.1-0.3-0.2-0.5-0.3-0.7
			c-0.6-5.8-4-10.7-9.3-13.7c-4.7-2.7-11.1-0.2-12.5,5.1c-0.3,1.2-0.6,2.4-0.8,3.6c-1,0.7-1.8,1.8-1.7,3.1c0.2,3.2,0.6,6.3,0.9,9.5
			c0.1,0.7,0.2,1.4,0.3,2.2c0.5,3.9,0.9,7.7,1.2,11.6c0,0.3,0.1,0.6,0.1,0.9c0,0.6,0.1,1.3,0.2,1.9c0,0.5,0.1,1.1,0.2,1.5
			c0,0.1,0,0.1,0,0.2c0.8,2.7,2.9,4.2,5.2,4.6c0.2,1.1,0.5,2.2,0.7,3.3c1.9,8.9,16.7,7.1,16.1-2.2c-0.3-5-0.7-10-1.1-15
			C131.4,116.2,131.3,114.2,131.1,112.2z"/>
	</g>
	<g>
		<path class="st0" d="M266.4,262.5c-19.1,8.7-41,8.3-61.6,9.5c-22.5,1.3-45,2.2-67.5,1.6c-33.2-1-79.7-16.7-110.1,1.3
			c-3.6,2.1-2,7.7,2.1,7.8c22.4,0.5,43,1.4,65.3,5c21.6,3.5,43.3,4.9,65.1,4.9c37.2,0,81.7,2.2,116.3-13.5
			C287.3,273.9,277.6,257.4,266.4,262.5z"/>
	</g>
	<g>
		<path class="st0" d="M292.4,161.7c-0.9-13.6-6.6-28-10.1-41.1c-3.7-14.1-7-28.8-13.5-41.9c-1-2-3.8-0.9-3.9,1.1
			c-0.7,12.5,1.4,24.9,3.1,37.3c1,7,2.4,43.4,9.4,46.6c-10.8-5-19.2,9.1-9.4,16C281.7,189.3,293.3,175.5,292.4,161.7z"/>
	</g>
	<g>
		<path class="st0" d="M350.7,204.8c-5.4-4.6-9-10.4-12.9-16.3c-2.1-3.2-7-1.2-6.2,2.6c1.6,7.5,5.7,14.4,9.6,21
			C346,219.9,357.2,210.3,350.7,204.8z"/>
	</g>
	<g>
		<path class="st0" d="M402.1,63.7c-2.8-2.6-6.5,0.6-5,3.9c9.1,19.8,4.8,38.4-4.8,55.5c-4.8-3-12.5-1.9-13.7,4.7
			c-1.2,7.3-2.1,14.7-2.9,22c-1.1,9.4,12.6,11.7,16.9,4.6C408,128.5,430.2,89.6,402.1,63.7z"/>
	</g>
	<g>
		<path class="st0" d="M464.6,337c-0.2-1.7-0.4-3.3-0.6-5c1.6-8.7,0.7-17.5-4.5-26.2c3.8-1.3,7.3-4.9,7.7-9
			c2.8-28.5,2.4-74.7-20.4-95.9c-1.5-1.4-3.8-0.4-3.9,1.6c-0.8,15.3,5.4,31,6.9,46.3c1.2,12.3,1.1,24.6,0,36.9
			c-2.6,2.5-4,6.5-2.1,10.9c0.6,1.4,1.2,2.8,1.8,4.3c-3.8,1.2-6.9,5.3-6.2,10.3c1.2,8,1.8,16.3,2.9,24.5
			c-2.5,7.2-7.3,14.2-11.4,20.4c-2.9,4.4-0.6,8.7,3.1,10.6c-1.5,2.5-3.1,4.9-4.5,7.4c-2.7,4.6,4.2,10.4,7.7,6
			c5.7-7.3,11.1-14.9,16.6-22.3c3.7-0.3,7.2-3,7.4-7.7c0-0.7,0-1.4,0-2.1c0.1-0.2,0.3-0.4,0.4-0.6
			C468.3,343.8,467.3,339.2,464.6,337z"/>
	</g>
	<g>
		<path class="st0" d="M476.4,334.5c-1.7-1.8-4.4,0.1-3.9,2.3c2.1,10.3,0.8,21.3-5.3,30c-1.7,2.4-3.6,4.2-5.7,5.8
			c-2.9-4.7-11.6-5.6-14.3,0.1c-2.3,4.8-3.9,9.5-5.3,14.6c-2.7,9.4,8.5,13.9,15,8.7c5.9-4.6,12.7-5.8,18-11.8
			c4.1-4.7,7-10.5,8.7-16.5C486.8,355.9,485,343.6,476.4,334.5z"/>
	</g>
	<g>
		<path class="st0" d="M362.8,414.4c-1.2-6.9-3.8-13.2-8.8-18.2c-1.7-1.7-3.9-3.5-6-4.8c4.6-11.4,11.6-20.2,10.7-34.7
			c-0.8-13.4-5.9-23.8-15.1-33.3c-2.8-2.9-7.3,0.8-5.5,4.2c6.6,12.2,8.6,26.3,4,39.5c-1.4,4-3.6,7.5-5.9,10.9c-4-1.3-8.6-0.6-10.5,4
			c-3.9,9-2.2,13.9,1.4,17.8c1,4,4.8,6.6,8.6,7c3.9,3.1,7.7,6.7,9.3,12.6C348.1,431,364.8,425.9,362.8,414.4z"/>
	</g>
	<g>
		<path class="st0" d="M234.5,452.8c-4.7-6.4-9.7-12.6-14.8-18.7c-5.3-12.2-12.5-23.5-22-33.1c1.8-0.6,3.5-1.7,4.8-3.6
			c-0.7,1.1,1.8,3.3,5.1,5.6c-1.8,8,2.8,17.5,15.1,17.3c7.7-0.1,10.4-6.9,8.5-12.4c3.5-4.6,2.5-12.5-4.7-15.3
			c-6.5-2.5-10.2-7.9-15.6-11.1c6.9-18.7,5.4-40.2-6.6-56.8c-2.5-3.5-9.1-1.6-7.5,3.2c6.7,19.5,5.7,39.2-6.8,55.7
			c-1.3,1.3-2.5,2.7-3.5,4.5c-3,5-1,9.5,2.6,11.8c-2.3,2-3.4,5.6-1.4,8.2c-4.3,3.2-6.2,10.6-2.2,15.4c3.2,3.8,6.3,7.6,9.5,11.5
			c2.2,4.6,3.8,9.8,5.5,14.3c3.1,8,6.7,15.1,12.3,21.6c5.4,6.1,13.6,1.8,15.4-4.6C233.9,464.8,238.6,458.5,234.5,452.8z"/>
	</g>
	<g>
		<path class="st0" d="M354.3,463.4c-2.2-22.5-17.8-42.4-35.4-55.5c-2.2-1.7-4.6-1.9-6.8-1.1c-1.2,0-2.3,0.7-3,1.7
			c-3.2,2.8-4.9,7.7-2.5,11.6c10.2,16.8,18.7,34.2,26.7,52.1c3.1,6.9,12,4.7,14.9-0.8C351.9,470.8,354.8,468.2,354.3,463.4z"/>
	</g>
	<g>
		<path class="st0" d="M482,423.2c-3.2-4.3-7.9-8-12.8-10.8c-0.1-0.2-0.2-0.3-0.3-0.5c0.2-0.6,0.4-1.2,0.6-1.9
			c1.3-6.2-2.2-12-8.4-13.4c-5.7-1.3-9.7,2.5-10.5,6.9c-0.4,0.1-0.9,0.1-1.4,0.2c-0.9,0.2-1.9,0.6-2.8,1.2c-7-0.7-14.2-0.1-21.2,1.9
			c-9.6,2.7-8.1,18.5,2.4,17.8c6.5-0.4,12.5-0.2,18.9,1.2c2.2,0.5,4.4,0.2,6.3-0.7c2.2,11.2,5,22.2,8.4,33.1
			c3.1,9.6,17.5,5.7,15.2-4.2c0-0.1,0-0.1,0-0.2c3.8-0.7,7.3-3.6,7.6-8.6C484.3,438,486.5,429.4,482,423.2z"/>
	</g>
	<g>
		<path class="st0" d="M333.1,324.5c-3.9-8-16.9-4.1-16.6,4.5c0.3,7.5-1,14.6-3.5,21.2c-2.1,3.7-4.1,7.4-6.4,11
			c-0.4,0.6-0.6,1.2-0.8,1.8c-3.7,4.8-8.3,9-13.8,12.4c-9.9,6.2-0.7,22,9.2,15.7c11.1-7,19.8-16.7,25.6-27.9
			C335.4,351.8,340.3,339,333.1,324.5z"/>
	</g>
	<g>
		<path class="st0" d="M186.5,319c-0.8-5.1-9-3.8-8.9,1.2c0.3,8.4,1.7,23-0.3,34.5c-1.9-7.1-12.5-7.3-16-1.4
			c-5.7,9.4-17.1,25-14.4,36.9c1.9,8.2,9.9,12.9,17.8,10c4-1.4,5.9-4.5,6.1-7.6c1.6-1,3-2.4,3.8-4.4c0.5-1.1,0.8-2.2,1.2-3.4
			c2.1-1.6,7.2-4.1,8.5-5.4c3.5-3.6,4.6-7.7,5.2-12.7C191.5,351.3,188.8,334.4,186.5,319z"/>
	</g>
	<g>
		<path class="st0" d="M399.1,242.9c-0.6,0.6-1.2,1.1-1.8,1.7c-2.3,2.1,1.3,5.7,3.4,3.4c0.6-0.6,1.1-1.2,1.7-1.8
			C404.5,244,401.3,240.8,399.1,242.9z"/>
	</g>
	<g>
		<path class="st0" d="M302.3,231.7c-8.3-8.3-16.3-15.5-27.2-6.8c-6.9,5.5-11.2,9.6-20.8,6.8c-8.1-2.3-14.5-8.6-21.6-12.9
			c-0.1-0.1-0.3-0.1-0.4-0.2c-0.6-0.9-1.4-1.7-2.7-2.3c-12.2-5.9-22.5-12.7-33.1-21.1c-0.5-0.4-0.9-0.6-1.4-0.8
			c-1.7-3.7-6.7-5.7-10.3-2c-10.4,10.3-18.5,20.4-33.1,24.9c-17.2,5.3-34.2,2-50.1-5.9c-2.4-1.2-5.5,2.1-3.1,4
			c26.5,21.2,73.5,19.6,93.5-10.2c8.2,9.5,19.5,17.9,30.5,23.3c3.4,1.6,6.5,0.5,8.5-1.7c5.9,8.8,14.3,16.8,24.5,19.8
			c5.1,1.5,10.8,2,16,0.8c4.6-1,8.6-5.3,12.6-7.6c1.8,1.6,3.5,3.6,5.1,5C297.9,252.9,310.8,240.1,302.3,231.7z"/>
	</g>
	<g>
		<path class="st0" d="M201.7,169.3c-2-4.2-7.6-3.2-9.8,0c-3.4,5-8.3,8.7-13.6,11.5c-5.5,2.9-0.7,11,4.8,8.3c2.9-1.4,5.6-3.1,8.2-5
			c2.2,3.2,7.4,4.3,9.9-0.1C204,179.2,204,174.1,201.7,169.3z"/>
	</g>
	<g>
		<path class="st0" d="M389.1,51.4c-2.5-3.6-6.5-4.2-9.7-3.1c-0.3-0.2-0.6-0.4-1-0.5c-7.9-3.1-9-10.8-15.7-14.7
			c-5-2.9-10.6-1.4-16.1-0.2c-17,3.9-34.5,10.6-48.7,20.7c-4,2.8-1.7,10.6,3.6,8.6c14.5-5.5,30.7-13.9,46.5-14.5
			c7.5-0.3,7.3,3.7,12.1,8.6c3.9,4,8.5,6.3,13.7,7.9c1.4,0.4,2.6,0.6,3.7,0.4c6.8,16.3-5.9,26.2-12.7,41.5
			c-4.5,10.2-6.2,21.1-4.4,32.1c0.6,3.8,7,3.8,7.7,0c1.8-9.9,3.7-19.1,9.1-27.8c4.6-7.3,11.3-13.1,15.1-20.9
			C398.5,77,397,62.6,389.1,51.4z"/>
	</g>
	<g>
		<path class="st1" d="M90.8,480.3c-2.9,0-5.3-2.2-5.4-5.1c-0.2-3.4-0.6-7-1-10.9c-0.6-5.7-1.2-11.5-1.2-17.3
			c0-32.6,23.6-37.5,39.2-40.7c13.4-2.8,17.3-4.4,17.3-10c0-4.4-1.8-5.5-9.6-8.5c-10.5-4-26.3-10.1-26.3-40
			c0-38.6,23.1-55.8,46-55.8c33.3,0,51.6,23.8,51.6,67c0,15.6-6.4,22.7-11,28c-3.1,3.5-4.6,5.3-4.6,8.2c0,1.3,0.4,2.2,0.6,2.3
			c33,1.6,47.9,30.3,47.9,58.1c0,3.6-0.2,7.2-0.7,10.8c-0.4,3-3.2,5-6.1,4.6c-3-0.4-5-3.1-4.6-6.1c0.4-3.1,0.6-6.2,0.6-9.3
			c0-21-9.9-46-37.7-47.4c-6.3-0.3-10.7-5.7-10.7-13c0-7.2,3.9-11.6,7.3-15.4c4.1-4.6,8.3-9.3,8.3-20.8c0-37.3-13.7-56.2-40.8-56.2
			c-16.2,0-35.2,11.8-35.2,45c0,22.5,9.4,26.1,19.4,29.9c7.4,2.8,16.5,6.3,16.5,18.6c0,15.3-14.4,18.2-25.9,20.6
			c-15.7,3.2-30.5,6.3-30.5,30.1c0,5.2,0.6,10.8,1.2,16.1c0.4,4,0.8,7.8,1,11.5c0.1,3-2.1,5.5-5.1,5.7
			C91,480.3,90.9,480.3,90.8,480.3z"/>
	</g>
	<g>
		<path class="st1" d="M357.5,456.7c-2.7,0-5-2-5.4-4.7c-3.6-28.4-30.2-43.6-40.2-49.3c-4.2-2.4-6.6-3.7-6.6-7.2
			c0-7.9,5.8-13.5,11.9-19.4c8.1-7.9,17.3-16.9,17.3-33.7c0-28.5-23.3-46-36-46c-25.9,0-37.4,40.3-37.4,55.6
			c0,15.8,4.1,16.1,10.2,16.5c5.3,0.4,15.3,1,15.3,15.4c0,17-12.7,20.8-23.8,24.3c-12.4,3.8-24.1,7.3-28.4,25.7
			c-0.7,2.9-3.6,4.7-6.5,4c-2.9-0.7-4.7-3.6-4-6.5c5.8-24.4,23.1-29.7,35.8-33.5c12-3.7,16.2-5.7,16.2-13.9c0-4.3,0-4.3-5.2-4.7
			c-9.8-0.7-20.3-3.4-20.3-27.3c0-9.9,3.4-26.2,11.1-40.2c9.4-17.1,22.2-26.2,37.1-26.2c18.6,0,46.8,22.6,46.8,56.8
			c0,21.3-11.9,32.9-20.6,41.4c-3.5,3.4-6.7,6.5-8,9.3c0.2,0.1,0.3,0.2,0.5,0.3c11.3,6.4,41.4,23.5,45.6,57.3c0.4,3-1.7,5.7-4.7,6
			C358,456.7,357.7,456.7,357.5,456.7z"/>
	</g>
	<g>
		<path class="st1" d="M358.5,472.4c-2.6,0-4.9-1.9-5.3-4.6c-0.4-2.8-0.6-5.5-0.6-8.1c0-24.7,17.9-40.1,32.2-52.4
			c8-6.9,15.6-13.4,15.6-18.3c0-2.6,0-3.7-4.9-3.7c-0.7,0-1.3,0-2,0c-0.7,0-1.5,0-2.2,0c-15.8,0-21.5-21.5-21.5-36
			c0-33,26.9-62.3,48-62.3c33.5,0,58.8,20.6,58.8,47.8c0,19.4-11.7,30.5-20.3,38.7c-5,4.8-9.4,8.9-9.4,12.6c0,6.2,2,7,12.4,8.4
			c14,1.8,35.1,4.6,35.1,45.3c0,2.8-0.1,5.6-0.1,8.5c-0.1,2.7-0.1,5.5-0.1,8.2c0,3-2.4,5.4-5.4,5.4c-3,0-5.4-2.4-5.4-5.4
			c0-2.8,0.1-5.6,0.1-8.4c0.1-2.7,0.1-5.5,0.1-8.2c0-31.2-12.5-32.9-25.6-34.6c-9.2-1.2-21.9-2.8-21.9-19.1
			c0-8.3,6.2-14.2,12.7-20.4c8.3-7.9,17-16.1,17-30.8c0-24-24.7-37-48-37c-14.4,0-37.2,23.6-37.2,51.5c0,10.5,4.1,25.2,10.7,25.2
			c0.7,0,1.3,0,2,0c0.7,0,1.5,0,2.2,0c13.7,0,15.8,9.1,15.8,14.5c0,9.9-9,17.6-19.4,26.5c-13.3,11.5-28.5,24.5-28.5,44.2
			c0,2.1,0.2,4.3,0.5,6.5c0.4,3-1.6,5.7-4.5,6.2C359,472.4,358.8,472.4,358.5,472.4z"/>
	</g>
	<g>
		<path class="st1" d="M142,392c-3,0-5.4-2.4-5.4-5.4c0-3,2.4-5.4,5.4-5.4c3.9,0,7.9-0.8,12.2-1.7c4.6-0.9,9.4-1.9,14.3-1.9
			c3.8,0,7.3,0.6,10.7,1.7c2.8,1,4.3,4.1,3.3,6.9c-1,2.8-4.1,4.3-6.9,3.3c-5.4-1.9-12.1-0.9-19.3,0.5C151.7,391.1,147,392,142,392z"
			/>
	</g>
	<g>
		<path class="st1" d="M143.4,413.6c-2.7,0-5-2-5.4-4.7c-0.4-3,1.7-5.7,4.7-6c5.6-0.7,11.3-1.2,16.8-1.8c5.4-0.5,11-1,16.5-1.7
			c2.9-0.3,5.7,1.7,6,4.7c0.4,3-1.7,5.7-4.7,6c-5.6,0.7-11.3,1.2-16.8,1.8c-5.4,0.5-11,1-16.5,1.7
			C143.8,413.6,143.6,413.6,143.4,413.6z"/>
	</g>
	<g>
		<path class="st1" d="M312,385.9c-6.1,0-11.9-0.8-17.5-1.6c-3.9-0.5-7.5-1.1-11.1-1.3c-3-0.2-5.2-2.8-5-5.8c0.2-3,2.9-5.2,5.8-5
			c4,0.3,8,0.8,11.9,1.4c6.3,0.9,12.8,1.8,19.3,1.4c3-0.2,5.5,2.1,5.7,5.1c0.2,3-2.1,5.5-5.1,5.7C314.6,385.9,313.3,385.9,312,385.9
			z"/>
	</g>
	<g>
		<path class="st1" d="M276.7,408c-3,0-5.4-2.4-5.4-5.4c0-3,2.4-5.4,5.4-5.4c11.5,0,23.3,0,34.8-1.4c3-0.3,5.7,1.8,6,4.7
			c0.3,3-1.8,5.7-4.7,6C300.6,408,288.5,408,276.7,408z"/>
	</g>
	<g>
		<path class="st1" d="M410.7,390c-2.8,0-5.2-2.2-5.4-5.1c-0.2-3,2.1-5.5,5.1-5.7c5.7-0.4,11.2-0.5,16.5-0.7
			c5.2-0.2,10.7-0.3,16.1-0.7c3.1-0.2,5.5,2.1,5.7,5.1c0.2,3-2.1,5.5-5.1,5.7c-5.6,0.4-11.1,0.5-16.4,0.7
			c-5.3,0.2-10.7,0.3-16.2,0.7C411,390,410.8,390,410.7,390z"/>
	</g>
	<g>
		<path class="st1" d="M412.7,410.8c-3.5,0-6.7-0.2-9.8-0.7c-2.9-0.5-5-3.2-4.5-6.2c0.5-3,3.2-5,6.2-4.5c2.5,0.4,5.2,0.6,8.1,0.6
			c5.5,0,11-0.7,16.8-1.4c4.4-0.5,9-1.1,13.6-1.3c3.1-0.1,5.5,2.1,5.7,5.1c0.2,3-2.1,5.5-5.1,5.7c-4.2,0.2-8.4,0.7-12.8,1.3
			C425,410,418.9,410.8,412.7,410.8z"/>
	</g>
	<g>
		<path class="st1" d="M275.9,354.8c-0.5,0-1-0.1-1.5-0.2c-2.9-0.8-4.5-3.8-3.7-6.7c0.9-3,2.8-5.3,4.4-7.1c1.1-1.3,2.3-2.7,2.3-3.5
			c0-3.5-4.8-6.8-9-9.6c-1.9-1.3-3.7-2.5-5.2-3.8c-2.2-2-2.5-5.4-0.5-7.6c2-2.2,5.4-2.5,7.6-0.5c1,0.9,2.5,1.9,4.1,3
			c5.8,3.9,13.7,9.3,13.7,18.6c0,4.9-2.9,8.2-5,10.6c-0.9,1.1-2,2.3-2.2,3C280.4,353.3,278.3,354.8,275.9,354.8z"/>
	</g>
	<g>
		<path class="st1" d="M418.4,381.2c-2.1,0-4.1-1.3-5-3.4c-0.6-1.6-9.9-35.7-9.9-40.9c0-3.7-5.8-7.1-11.4-10.3
			c-2.8-1.6-5.8-3.3-8.3-5.2c-2.4-1.8-2.9-5.2-1.1-7.6c1.8-2.4,5.2-2.9,7.6-1.1c2,1.5,4.5,3,7.2,4.5c7.5,4.3,16.8,9.6,16.8,19.6
			c0.3,3.8,8.1,33.9,9.2,37c1,2.8-0.4,5.9-3.2,6.9C419.7,381.1,419,381.2,418.4,381.2z"/>
	</g>
	<g>
		<path class="st1" d="M21.1,251.7c-3,0-5.4-2.4-5.4-5.4v-0.4c0-1.2,0-2.5-0.1-3.7C12.4,183.9,8.7,117.9,8.7,54l0-4.9
			c0-1.4,0.6-2.8,1.6-3.8c1-1,2.4-1.6,3.8-1.6c29.6,0.4,59.6,1.1,88.6,1.9c40.1,1,81.5,2.1,122.2,2.1c11.1,0,21.9-0.1,32-0.2
			c3,0,5.3,2.3,5.5,5.1c0.7,14.1,1.4,28.3,2,42.5c1,22.4,2,45.6,3.4,68.1c0.2,3-2.1,5.5-5.1,5.7c-3.1,0.2-5.5-2.1-5.7-5.1
			c-1.4-22.5-2.4-45.8-3.4-68.3c-0.6-12.4-1.1-24.8-1.7-37.2c-8.7,0.1-17.7,0.2-27,0.2c-40.8,0-82.4-1.1-122.5-2.1
			c-27.2-0.7-55.3-1.4-83-1.8c0,63.5,3.7,129.1,6.9,186.9c0.1,1.4,0.1,2.9,0.1,4.3v0.4C26.5,249.2,24.1,251.7,21.1,251.7z"/>
	</g>
	<g>
		<path class="st1" d="M275.4,274.4c-12.1-0.3-24-0.6-36-0.9c-53.2-1.4-108.3-2.8-162.4-2.8c-23.2,0-44.5,0.2-65.2,0.8
			c-1.5,0-2.9-0.5-3.9-1.6c-1-1-1.6-2.5-1.6-3.9c0.1-6.6,0.2-13.2,0.2-19.7c0-3,2.4-5.4,5.4-5.4c19,0,38.3,0.3,56.9,0.5
			c19.1,0.2,38.9,0.5,58.3,0.5c34.9,0,55.7-0.8,74.1-1.5c14.5-0.6,27.1-1.1,43.7-1.1c10.6,0,20.1,0.3,29.2,0.8
			c2.7,0.2,4.9,2.4,5.1,5.1c0.2,4.2,0.5,8.3,0.8,12.5c0.3,3.7,0.5,7.4,0.7,11.1c0.1,1.5-0.5,3-1.5,4.1
			C278.3,273.8,276.9,274.4,275.4,274.4z M77.1,259.9c54.2,0,109.4,1.4,162.6,2.8c10,0.3,19.9,0.5,29.9,0.8
			c-0.1-1.7-0.2-3.4-0.3-5.1c-0.2-2.6-0.4-5.2-0.5-7.8c-7.4-0.3-15.3-0.5-23.8-0.5c-16.4,0-28.9,0.5-43.3,1.1
			c-18.5,0.7-39.4,1.6-74.5,1.6c-19.5,0-39.3-0.2-58.5-0.5c-16.8-0.2-34.2-0.4-51.4-0.5c0,3,0,5.9-0.1,8.9
			C36.3,260.1,55.9,259.9,77.1,259.9z"/>
	</g>
	<g>
		<path class="st1" d="M32.8,412.9c-0.8,0-1.5-0.2-2.3-0.5c-2.7-1.3-3.9-4.5-2.6-7.2c8.5-18.4,16.8-36.8,25.1-55.1
			C65.2,323,77.9,295,90.6,268c1.3-2.7,4.5-3.9,7.2-2.6c2.7,1.3,3.8,4.5,2.6,7.2c-12.7,26.9-25.4,54.8-37.6,81.9
			c-8.3,18.4-16.7,36.8-25.1,55.2C36.7,411.7,34.8,412.9,32.8,412.9z"/>
	</g>
	<g>
		<path class="st1" d="M147.4,300.5c-3,0-5.4-2.4-5.4-5.4v-22.4c0-3,2.4-5.4,5.4-5.4c3,0,5.4,2.4,5.4,5.4v22.4
			C152.8,298.1,150.4,300.5,147.4,300.5z"/>
	</g>
	<g>
		<path class="st1" d="M222.8,343.6c-1.8,0-3.6-0.9-4.6-2.6c-13.2-21.6-25.6-43.1-32.9-67.7c-0.8-2.9,0.8-5.9,3.7-6.7
			c2.8-0.8,5.9,0.8,6.7,3.7c6.9,23.4,19,44.2,31.8,65.2c1.6,2.6,0.7,5.9-1.8,7.4C224.7,343.4,223.8,343.6,222.8,343.6z"/>
	</g>
	<g>
		<path class="st1" d="M126.1,227.4c-19.7,0-40.4-8.9-55.6-23.9c-14.7-14.6-22.7-33.4-22.5-53.1c0.5-39.4,34-72.5,74.7-73.7
			c0.9,0,1.7,0,2.6,0c34.1,0.1,61.7,17.9,72.1,46.4c1,2.8-0.4,5.9-3.2,6.9c-2.8,1-5.9-0.4-6.9-3.2c-8.8-24.1-32.5-39.2-62-39.3
			c-0.8,0-1.5,0-2.3,0c-35,1-63.8,29.3-64.2,63c-0.2,16.7,6.7,32.8,19.3,45.3c13.6,13.4,32,21.2,49.3,20.8
			c17.4-0.4,34.3-8.2,46.3-21.3c2-2.2,5.4-2.4,7.6-0.3c2.2,2,2.4,5.4,0.3,7.6c-14,15.3-33.7,24.3-54,24.8
			C127.1,227.4,126.6,227.4,126.1,227.4z"/>
	</g>
	<g>
		<path class="st1" d="M227.1,85.2h-18.7c-3,0-5.4-2.4-5.4-5.4c0-3,2.4-5.4,5.4-5.4h18.7c3,0,5.4,2.4,5.4,5.4
			C232.5,82.8,230.1,85.2,227.1,85.2z"/>
	</g>
	<g>
		<path class="st1" d="M228.8,105.6c-3.2,0-6.5-0.2-9.7-0.4c-3.2-0.2-6.2-0.4-9-0.4c-3,0-5.4-2.4-5.4-5.4c0-3,2.4-5.4,5.4-5.4
			c3.2,0,6.5,0.2,9.7,0.4c3.2,0.2,6.2,0.4,9,0.4c3,0,5.4,2.4,5.4,5.4S231.8,105.6,228.8,105.6z"/>
	</g>
	<g>
		<path class="st1" d="M232.2,122.6h-20.4c-3,0-5.4-2.4-5.4-5.4s2.4-5.4,5.4-5.4h20.4c3,0,5.4,2.4,5.4,5.4S235.2,122.6,232.2,122.6z
			"/>
	</g>
	<g>
		<path class="st1" d="M56.4,163.4c-2.8,0-5.2-2.2-5.4-5.1c-0.2-3,2.1-5.5,5.1-5.7c8.2-0.5,16.3-0.9,24.5-1.3
			c13.8-0.7,27.9-1.4,42-2.6c5.2-21.3,10.3-42.2,16.2-62.6c0.8-2.9,3.8-4.5,6.7-3.7c2.9,0.8,4.5,3.8,3.7,6.7
			c-6.1,21.4-11.5,43.4-17,65.9c-0.5,2.2-2.4,3.9-4.7,4.1c-15.5,1.5-31.2,2.3-46.3,3c-8.1,0.4-16.2,0.8-24.3,1.3
			C56.7,163.3,56.6,163.4,56.4,163.4z"/>
	</g>
	<g>
		<path class="st1" d="M122.1,156.9c-2.1,0-4.2-1.3-5-3.4c-1.1-2.8-2.4-5.6-3.7-8.3c-2.4-5.2-4.9-10.7-6.4-16.7l-0.7-2.9
			c-2.7-10.8-5.2-21-9.7-30.7c-1.2-2.7-0.1-5.9,2.6-7.2c2.7-1.3,5.9-0.1,7.2,2.6c4.9,10.6,7.7,21.8,10.4,32.6l0.7,2.9
			c1.3,5.1,3.5,9.8,5.8,14.8c1.3,2.8,2.7,5.8,3.9,8.9c1.1,2.8-0.2,5.9-3,7C123.4,156.8,122.8,156.9,122.1,156.9z"/>
	</g>
	<g>
		<path class="st1" d="M303.4,276c-3,0-5.4-2.4-5.4-5.4c0-3.4,0-6.8,0-10.2c0-3.4,0-6.9,0-10.3c0-6.7-0.1-14.3-0.4-22.2
			c-6.8,1.2-12.7,1.4-18,1.4c-23.2,0-65-3.4-84.4-26.3c-4.9-5.8-11.9-8.2-19.3-10.6c-14.4-4.8-30.6-10.3-30.6-41.4
			c0-1.4,0-2.7,0-4.1l0-1.1c0-2.3,1.5-4.3,3.6-5c5-1.8,10.2-2.7,15.5-2.7c19.4,0,35,11.7,39.4,29c21.9,0.2,41.6,9.3,60.6,18.1
			c31.6-21.1,49.4-25.7,59.1-28.3c7-1.8,7-1.8,7-8.7c0-2.8-0.5-3.3-5.8-5.4c-11.2-4.5-22.1-11.3-22.1-40.4c0-18.5,2.6-32,7.9-41.3
			c1.5-2.6,4.8-3.5,7.4-2c2.6,1.5,3.5,4.8,2,7.4c-4.4,7.6-6.5,19.4-6.5,35.9c0,24.2,7.8,27.3,15.3,30.3c5.3,2.1,12.6,5,12.6,15.4
			c0,13.9-4.1,16.3-15.1,19.1c-9.3,2.4-26.7,6.9-58.2,28.5c-1.6,1.1-3.6,1.2-5.3,0.4l-2.8-1.3c-19.2-8.9-39-18.1-60.2-17.1
			c-2.8,0.1-5.3-1.9-5.6-4.7c-2.2-16.7-16.9-24.4-29.6-24.4c-2.8,0-5.6,0.3-8.3,1c0,0.4,0,0.7,0,1.1c0,23.4,9.8,26.6,23.3,31.1
			c8.1,2.7,17.3,5.8,24.2,13.9c17.2,20.3,59,22.5,76.1,22.5c5.8,0,12.7-0.2,21.7-2.5c1.6-0.4,3.2-0.1,4.5,0.9c1.3,0.9,2.1,2.4,2.2,4
			c0.7,10.3,0.8,20.5,0.8,29.2c0,3.5,0,6.9,0,10.4c0,3.4,0,6.8,0,10.2C308.8,273.6,306.4,276,303.4,276z"/>
	</g>
	<g>
		<path class="st1" d="M354.1,320.8c-2.5,0-4.7-1.7-5.3-4.3c-16.4-76.6-4.4-91.4,12.2-111.9c6.3-7.8,12.9-15.9,18.9-29.1
			c1.2-2.7,4.4-3.9,7.2-2.7c2.7,1.2,3.9,4.4,2.7,7.2c-6.5,14.5-13.9,23.5-20.3,31.5c-15.3,18.9-25.4,31.3-10.1,102.8
			c0.6,2.9-1.2,5.8-4.2,6.4C354.8,320.8,354.5,320.8,354.1,320.8z"/>
	</g>
	<g>
		<path class="st1" d="M397.8,91.4c-0.1,0-0.1,0-0.2,0c-15.1-0.5-28.4-10.1-33.8-23.9c-10.3,0.5-21.4,0.8-35.2,0.8
			c-7.3,0-14.5-0.1-21.8-0.1c-5.5,0-11-0.1-16.5-0.1c-1.9,0-3.7-1-4.6-2.6c-1-1.6-1-3.7-0.1-5.3c13.5-24.9,36.1-39.8,60.7-39.8
			c38.3,0,58.3,27.9,58.3,55.5c0,4-0.5,7.9-1.5,11.6C402.4,89.8,400.2,91.4,397.8,91.4z M367.6,56.4c2.4,0,4.6,1.7,5.2,4.1
			c2.6,9.9,10.7,17.5,20.6,19.6c0.2-1.4,0.3-2.8,0.3-4.3c0-29.3-23.9-44.7-47.5-44.7c-17.8,0-34.6,9.6-46.3,26.2c2.3,0,4.7,0,7,0.1
			c7.2,0.1,14.5,0.1,21.7,0.1c15.4,0,27.4-0.3,38.7-1C367.4,56.4,367.5,56.4,367.6,56.4z"/>
	</g>
	<g>
		<path class="st1" d="M439.9,287.4c-2.7,0-5.1-2.1-5.4-4.9c-0.6-5.6-0.8-11.5-0.8-18.6c0-4.9,0.1-9.7,0.2-14.5
			c0.1-4.7,0.2-9.5,0.2-14.3c0-50.9-26-59.4-46.8-66.2c-12-3.9-24.4-8-24.4-21.2c0-13.8,7.9-24.6,15.6-35c6.8-9.2,13.2-18,13.6-28
			c0.1-3,2.7-5.4,5.6-5.2c3,0.1,5.3,2.6,5.2,5.6c-0.5,13.4-8.2,23.9-15.7,34.1c-6.9,9.4-13.5,18.3-13.5,28.5c0,4.9,4.9,7,17,10.9
			c21.6,7.1,54.3,17.7,54.3,76.5c0,4.9-0.1,9.7-0.2,14.6c-0.1,4.7-0.2,9.5-0.2,14.3c0,6.7,0.2,12.3,0.8,17.5c0.3,3-1.9,5.6-4.8,5.9
			C440.3,287.4,440.1,287.4,439.9,287.4z"/>
	</g>
	<g>
		<path class="st1" d="M406.9,294.3c-0.2,0-0.3,0-0.5,0c-3-0.3-5.2-2.9-4.9-5.9c0.2-2.2,0.3-4.5,0.3-7.1c0-5.5-0.4-11.2-0.9-16.7
			c-0.4-5.7-0.9-11.6-0.9-17.5c0-1.5,0-2.9,0.1-4.4c0.1-3,2.7-5.3,5.6-5.2c3,0.1,5.3,2.7,5.2,5.6c-0.1,1.3-0.1,2.6-0.1,3.9
			c0,5.4,0.4,10.9,0.9,16.7c0.4,5.7,0.9,11.7,0.9,17.6c0,2.9-0.1,5.5-0.3,8.1C412,292.2,409.6,294.3,406.9,294.3z"/>
	</g>
	<g>
		<path class="st1" d="M348.8,225.6c-1.6,0-3.2-0.7-4.2-2c-8.7-10.9-15.4-23-22-34.7c-3.6-6.5-7.3-13.1-11.3-19.4
			c-1.6-2.5-0.8-5.9,1.7-7.5c2.5-1.6,5.9-0.8,7.5,1.7c4.1,6.5,7.9,13.4,11.6,19.9c6.6,11.8,12.8,23,21,33.2c1.9,2.3,1.5,5.7-0.8,7.6
			C351.2,225.3,350,225.6,348.8,225.6z"/>
	</g>
	<g>
		<path class="st1" d="M351,185.6c-8.5,0-13.5-8.7-13.5-17c0-3,2.4-5.4,5.4-5.4c3,0,5.4,2.4,5.4,5.4c0,3.3,1.8,6.2,2.7,6.2
			c0.9,0,2-1.8,2.4-4c0.6-2.9,3.4-4.8,6.4-4.2c2.9,0.6,4.8,3.4,4.2,6.4C362.5,180.6,357.4,185.6,351,185.6z"/>
	</g>
	<g>
		<path class="st1" d="M336.3,204.9c-0.7,0-1.5-0.1-2.2-0.5c-2.7-1.2-4-4.4-2.7-7.1c1.3-3,2.7-5.8,4-8.7c1.3-2.8,2.6-5.5,3.9-8.5
			c1.2-2.7,4.4-4,7.1-2.7c2.7,1.2,4,4.4,2.7,7.1c-1.3,3-2.7,5.8-4,8.7c-1.3,2.8-2.6,5.5-3.9,8.5
			C340.4,203.7,338.4,204.9,336.3,204.9z"/>
	</g>
	<g>
		<path class="st1" d="M368.6,201c-1.8,0-3.6-0.9-4.6-2.5l-9.9-15.8c-1.6-2.5-0.8-5.9,1.7-7.5c2.5-1.6,5.9-0.8,7.5,1.7l9.9,15.8
			c1.6,2.5,0.8,5.9-1.7,7.5C370.6,200.7,369.6,201,368.6,201z"/>
	</g>
</g>
</svg>
