<?xml version="1.0" encoding="utf-8"?>
<!-- Generator: Adobe Illustrator 22.1.0, SVG Export Plug-In . SVG Version: 6.00 Build 0)  -->
<svg version="1.1" id="Layer_1" xmlns="http://www.w3.org/2000/svg" xmlns:xlink="http://www.w3.org/1999/xlink" x="0px" y="0px"
	 viewBox="0 0 500 500" style="enable-background:new 0 0 500 500;" xml:space="preserve">
<style type="text/css">
	.st0{fill:#E0DFE6;}
	.st1{fill:#525D7D;}
</style>
<g>
	<g>
		<path class="st0" d="M467,230.4c-1.2-3.1-6.2-2.9-6.1,0.8c1.4,51.6-3.8,101.4-32,146c-21.2,33.5-51.2,57-86.2,72.7
			c1.9-6.2,3.8-12.3,5.5-18.5c16.6-6.4,34.1-24.6,44.6-35.3c16.4-16.7,30.6-36.4,40.9-57.5c19.7-40.3,31.9-94.8,16.1-138.4
			c-1.4-4-7.3-3.4-7.5,1c-0.6,15.9-1.3,31.2-2.9,46.2c-1.8-0.3-3.8,0.9-4,3.2c-2.6,27.6-17,53.8-36.2,76.1c-2.9-3.5-8-5.2-12.8-2.6
			c-7,3.9-14.1,6.6-21.6,8.4c1-17.2,0.5-34.5-3.5-50.5c-1-4-7.4-4.2-8.2,0c-6,29-5.6,59.5-10.9,88.8c-0.2,1.3-0.5,2.5-0.7,3.7
			c-0.1,0.1-0.2,0.2-0.4,0.3c-4,3.2-4.1,7.7-2,11.4c-2.1,9.5-4.4,19-7,28.3c-1.1,0.8-2.1,1.8-2.6,2.9l-0.5,1
			c-1.2,2.7-1.3,5.8-0.5,8.5c-2,6.5-4,13-6.2,19.4c-2.8,1.6-4.9,4.3-4.7,8.2l0.2,5c-0.6,0.2-1.2,0.4-1.9,0.6
			c-2.6,0.9-4.4,2.4-5.5,4.2c-1.5-1.7-3.6-2.9-6.5-3c-4.4-0.3-8.8-0.5-13.2-0.6c-1.1-3.1-4-5.5-7.9-4c-4,1.5-7.9,2.6-11.9,3.3
			c-1.8-0.1-3.7-0.2-5.5-0.3c7-4.9,13.3-10.3,18.6-16c0.9-1,1.5-2,1.9-3c0.9,1.1,1.8,2.2,2.7,3.3c0.5,0.6,1,1.3,1.6,2
			c0.2,1.1,0.6,2.1,1.2,2.9c1.4,1.9,3.1,3.1,4.8,3.9c5.9,5.9,13.1,10.4,19.4,3c4.4-5.2,1.6-13.4-3.5-15.8
			c9.5-27.9,17.5-56.5,24.5-85.2c6.1-25.2,15.9-55.3,11.9-81.4c-0.4-2.4-3.8-2.4-4.9-0.6c-14.5,22.9-18.7,54.9-26.1,80.7
			c-6.9,24.1-14.4,48-21.9,71.9c-0.9-1-1.9-2-2.9-3c-6.3-6.8-12.2-13.9-18.9-20.2c-3.4-3.2-7.6-1.4-9,1.9c-2.8-0.5-5.9,0.2-8.5,2.8
			c-29.4,29.5-70.9,44.3-112.3,36.2c-43.5-8.5-66.7-39.2-99.4-65.2c-4.2-3.3-10.5,0.7-7.7,5.9c47.5,87.1,162.5,108.4,233.9,37.6
			c0.2-0.2,0.3-0.3,0.4-0.5c1.2,1.9,2.4,3.7,3.7,5.5c-1.8,0.3-3.5,1.3-5.1,3c-24.2,26-62.8,39-97.7,42c-37.5,3.2-67.6-9.6-95.7-33.5
			c-3.1-2.7-7.5,0.6-5.7,4.4c29.3,60,115.4,58.4,173.8,29.7c19,5.8,41.9,7.4,59.4,7.9c3.6,0.1,6-1.4,7.5-3.6c2.1,2.6,5.5,4.1,9.8,3
			C423.7,454.6,507.4,334.6,467,230.4z M385.9,373.3c-7.4,8.4-19,21.7-31,30.8c1.1-5.2,2.1-10.5,3.1-15.8
			c17.6-11,33.5-24.4,46.9-40.1C399.1,357,392.9,365.4,385.9,373.3z"/>
	</g>
	<g>
		<path class="st0" d="M186.5,319.6c-47.9-1.5-89-18.1-109.9-61.3c-1.5-5-2.9-10-4.1-15.2c-0.9-4-6.7-2.9-6.9,0.9
			c-1.1,18.4,2.5,36.1,9.3,52.5c-0.7,0.9-1.3,1.9-1.5,3.1c-6.7,29.4,12.2,49.9,33.6,67.2c4.8,3.9,10.6,2.3,13.9-1.2
			c1.8,3.7,5.6,6.5,10.7,5.6c13.4-2.5,25.9-6.8,37.5-13c4,0,7.4-2.4,9.3-5.5c3-1.9,5.9-3.9,8.8-6.1c3.3-2.5,4.7-6.2,4.3-9.6
			C198.3,332.8,196.7,319.9,186.5,319.6z"/>
	</g>
	<g>
		<path class="st0" d="M259.6,152.7c-4.7-11.4-23.5-6.7-18.9,5.2c10.5,27.3-12.6,25.6-28.9,35.9c-4.6,2.9-7.8,6.6-10.2,11.6
			c-1,2.1-1.2,5.1-2.4,7c-8.4,13.1-15.9,8.2-25.2,4.2c-5.2-2.2-12.2,4.5-6.8,8.8c8.8,6.9,19,13.4,30.8,11.5
			c17.1-2.8,14.1-20.3,26.7-27.8c11.1-6.6,22.5-6.3,31.6-17.2C265.8,180.4,265,165.8,259.6,152.7z"/>
	</g>
	<g>
		<path class="st0" d="M238.8,136c-2.2-14.9-10.3-30.7-16.7-44.3c-1.1-2.2-3.5-2.6-5.5-1.8c-0.9-2.2-1.8-4.3-2.8-6.5
			c-2.2-4.8-10.6-1.3-8.6,3.6c5.3,12.8,6.2,25.5,5.2,39.3c-0.5,7.3,9.6,8.3,12.4,2.8c0.5,3.6,1,7.2,1.9,10.7
			C226.9,149.3,240.1,145.1,238.8,136z"/>
	</g>
	<g>
		<path class="st0" d="M178,41.7c-2.3,6.2-4.3,11.9-8.9,16.9c-3.1,3.3-8.4,9-13,5.6c-5-3.7-9.8,3.2-7.7,7.7
			c4.5,9.8,17.9,7.5,25.3,2.6c9.4-6.3,17.9-17.1,20.2-28.4C195.9,35.6,181.6,31.7,178,41.7z"/>
	</g>
	<g>
		<path class="st0" d="M171.4,89.5c-2.1,1.7-3.1,5.6-2.2,8.1c6.5,18.4,7.8,36.8-10,48.8c-4.3,2.9-1.7,9.6,3.5,8.4
			c20.5-4.9,25.9-25.8,25-44.9c3.4,1.2,7.6,0.4,9.2-3.2C204.6,89.7,184.6,78.9,171.4,89.5z"/>
	</g>
	<g>
		<path class="st0" d="M201.8,196.6c-0.3-2.5-1.6-4.5-3.3-5.9c-1.8-5.7-1.6-14.6-2.4-19.2c-1.4-8.6-3.1-17.1-4.8-25.6
			c-1.2-6-10.6-4.5-10.5,1.4c0.2,11.4,0.6,22.8,1.2,34.2c0.4,7.2-1.1,16.9,4.4,22.4c2.9,2.9,6.8,2.8,10.3,1.3l1.1-0.5
			c2.4-1,4.4-4.6,4.1-7.1C201.8,197.3,201.8,197,201.8,196.6z"/>
	</g>
	<g>
		<path class="st1" d="M94.3,371.2c-1.7,0-3.4-0.8-4.5-2.4c-23.7-34.6-35.9-74.4-35.2-115c1-56.1,27-109.8,71.3-147.4
			c2.3-1.9,5.7-1.7,7.7,0.6c1.9,2.3,1.7,5.7-0.6,7.7C91,150.3,66.5,201.1,65.5,254.1c-0.7,38.3,10.8,75.9,33.3,108.6
			c1.7,2.5,1.1,5.9-1.4,7.6C96.5,370.9,95.4,371.2,94.3,371.2z"/>
	</g>
	<g>
		<path class="st1" d="M263.9,464.8c-14,0-28.2-1.7-42.5-5.1c-2.9-0.7-4.7-3.6-4.1-6.6c0.7-2.9,3.6-4.8,6.6-4.1
			c14.9,3.5,29.8,5.1,44.3,4.7c9.8-0.3,19.8-1.5,29.8-3.5c3-0.6,5.8,1.3,6.5,4.2c0.6,2.9-1.3,5.8-4.2,6.5
			c-10.6,2.2-21.3,3.5-31.7,3.8C266.9,464.8,265.4,464.8,263.9,464.8z"/>
	</g>
	<g>
		<path class="st1" d="M320.9,455.1c-2.3,0-4.4-1.4-5.2-3.7c-1-2.9,0.6-5.9,3.4-6.9c70.7-23.8,140-95.3,135.4-201.1
			c-2.1-47.9-21.2-91.8-53.9-123.8C367.6,87.3,322,68.6,272.1,67.1c-9.1-0.3-18.2,0-27,0.8c-17.9,1.6-35.4,5.5-52.2,11.8
			c-2.8,1-6-0.4-7-3.2c-1.1-2.8,0.4-6,3.2-7c17.7-6.6,36.3-10.8,55.1-12.5c9.2-0.8,18.8-1.1,28.3-0.8
			c107.3,3.3,188.5,81.9,193,186.8c4.8,111.5-68.3,186.7-142.8,211.9C322.1,455.1,321.5,455.1,320.9,455.1z"/>
	</g>
	<g>
		<path class="st1" d="M161.4,84.1c-0.3,0-0.7,0-1,0c-9.3-0.3-18-4.4-24.7-11.5c-7.3-7.9-11-18.4-10.5-29.6
			c0.8-18.8,14.7-33.9,32.3-35.2c1.6-0.1,3.2-0.1,4.9,0c13.8,0.9,25.7,7.6,31.8,18c3.1,5.3,4.9,11.3,5.2,17.5
			c0.4,10.8-3.8,21.5-11.6,29.3C180.4,80,170.9,84.1,161.4,84.1z M159.9,18.7c-0.6,0-1.1,0-1.7,0.1c-12.1,0.9-21.6,11.5-22.2,24.8
			c-0.4,8.3,2.3,16,7.6,21.7c4.6,5,10.7,7.8,17,8c6.9,0.2,13.9-2.8,19.3-8.2c5.7-5.7,8.7-13.4,8.4-21.2c-0.2-4.3-1.4-8.6-3.7-12.4
			c-4.3-7.2-13.1-12-23.2-12.7C161,18.7,160.4,18.7,159.9,18.7z"/>
	</g>
	<g>
		<path class="st1" d="M128.8,54c-2.4,0-4.6-1.6-5.2-4c-0.8-2.9,0.8-5.9,3.7-6.7c19-5.4,34-17.6,43.3-26.8c2.1-2.1,5.6-2.1,7.7,0
			c2.1,2.1,2.1,5.6,0,7.7c-10.1,10.1-26.7,23.5-48,29.6C129.8,53.9,129.3,54,128.8,54z"/>
	</g>
	<g>
		<path class="st1" d="M183.8,222.8c-26.3,0-35.9-40.1-40-57.2c-0.2-0.6-0.3-1.3-0.5-1.9c-0.1,0-0.1,0-0.2,0
			c-18.3,0-19.2-42-19.2-50.4c0-22,8.3-35.8,24.8-40.9c2.9-0.9,5.9,0.7,6.8,3.6c0.9,2.9-0.7,5.9-3.6,6.8
			c-11.7,3.7-17.1,13.4-17.1,30.5c0,21,5.2,39.5,8.3,39.5c0.5,0,1-0.1,1.5-0.1c0.9-0.1,1.7-0.2,2.5-0.2c4.7,0,5.5,3.6,7.2,10.6
			c3.2,13.4,11.7,48.8,29.4,48.8c6.2,0,9.6-13.4,9.6-23c0-8.4-1.7-17.3-3.5-26.7c-1.9-9.7-3.8-19.7-3.8-29.5c0-8.2,0-12.4,5-13.2
			c4.8-0.8,6.4,3.7,7.4,6.7c3.5,10.5,6,12.7,7.4,12.7c0.7-0.4,2.6-3.9,2.6-11.8c0-35.3-19.3-50.2-27-50.2c-3,0-5.5-2.4-5.5-5.5
			c0-3,2.4-5.5,5.5-5.5c15.5,0,37.9,21.8,37.9,61.1c0,20.5-9.4,22.7-13.5,22.7c-3,0-5.5-1-7.6-2.6c0.7,4.3,1.5,8.6,2.3,12.9
			c1.8,9.5,3.7,19.3,3.7,28.8C204.3,205.2,197.9,222.8,183.8,222.8z"/>
	</g>
	<g>
		<path class="st1" d="M200.1,190.9c-2.7,0-5.1-2-5.4-4.8c-0.3-3,1.8-5.7,4.8-6.1c7.8-0.9,31.7-6.6,37.3-10.4
			c-0.7-4.8-2-9.6-3.3-14.6c-1-3.7-2-7.5-2.7-11.4c-1,0.3-1.9,0.5-2.9,0.8c-8.2,2.2-15.9,4.2-23.3,7.2c-2.8,1.1-6-0.2-7.1-3
			c-1.1-2.8,0.2-6,3-7.1c8-3.2,16.4-5.4,24.5-7.6c2.9-0.8,5.8-1.5,8.6-2.3c1.5-0.4,3.2-0.2,4.5,0.7c1.3,0.9,2.2,2.3,2.4,3.9
			c0.6,5.3,2,10.6,3.5,16.1c1.5,5.7,3,11.5,3.8,17.7c0,0.3,0.1,0.7,0.1,1.1c0,13.5-46.7,19.8-47.2,19.9
			C200.5,190.9,200.3,190.9,200.1,190.9z"/>
	</g>
	<g>
		<path class="st1" d="M186.9,219.9c-2,0-4-1.2-4.9-3.1c-5.6-11.8-13-29.7-13-47.9c0-3,2.4-5.5,5.5-5.5s5.5,2.4,5.5,5.5
			c0,16.1,6.8,32.4,11.9,43.3c1.3,2.7,0.1,6-2.6,7.3C188.4,219.7,187.6,219.9,186.9,219.9z"/>
	</g>
	<g>
		<path class="st1" d="M150.3,165.2c-2.4,0-4.6-1.6-5.2-4c-2.5-8.6-2.8-17.4-2.8-25.6c0-2.1,0-4.2,0-6.2c0-2.1,0-4.1,0-6.2
			c0-3,2.4-5.5,5.5-5.5c3,0,5.5,2.4,5.5,5.5c0,2.1,0,4.2,0,6.3c0,2,0,4.1,0,6.1c0,7.4,0.3,15.3,2.4,22.6c0.8,2.9-0.9,5.9-3.7,6.7
			C151.3,165.1,150.8,165.2,150.3,165.2z"/>
	</g>
	<g>
		<path class="st1" d="M190.2,136.9c-2.8,0-5.1-2.1-5.4-4.9c-0.4-3.9-1.2-7.5-2-11.5c-0.8-4-1.7-8.2-2.2-12.6c-0.3-3,1.9-5.7,4.9-6
			c3-0.4,5.7,1.9,6,4.9c0.4,3.9,1.2,7.5,2,11.5c0.8,4,1.7,8.2,2.2,12.6c0.3,3-1.9,5.7-4.9,6C190.5,136.9,190.3,136.9,190.2,136.9z"
			/>
	</g>
	<g>
		<path class="st1" d="M151.2,155.2c-2.6,0-5-1.9-5.4-4.6c-0.5-3,1.6-5.8,4.6-6.2c5.2-0.8,10.6-2,15.8-3.2c5.4-1.2,11-2.5,16.6-3.4
			c3-0.4,5.8,1.6,6.2,4.6c0.5,3-1.6,5.8-4.6,6.2c-5.2,0.8-10.6,2-15.8,3.2c-5.4,1.2-11,2.5-16.6,3.4
			C151.7,155.2,151.4,155.2,151.2,155.2z"/>
	</g>
	<g>
		<path class="st1" d="M315.6,477.4c-1.4,0-2.8-0.5-3.8-1.6l-2.5-2.4c-13.2-12.9-26.8-26.2-39.7-39.7c-25.4,20-67.6,40.1-114.8,40.1
			c-48.9,0-94.5-30-135.6-89.1c-1.7-2.5-1.1-5.9,1.4-7.6c2.5-1.7,5.9-1.1,7.6,1.4c39,56,81.6,84.4,126.6,84.4
			c46.8,0,88.4-21.1,111.7-40.8c2.2-1.9,5.5-1.7,7.5,0.4c12.4,13.1,25.7,26.2,38.6,38.8c14.2-59.3,25.1-122.3,32.6-187.6
			c-57.2,10-114.2,14.9-167.9,18.5c2.2,3.2,4.4,6.3,6.6,9.4c8.5,12.1,17.3,24.6,25,37.7c1.3,2.3,0.9,5.2-1.2,6.9
			c-23.1,19.8-52.6,31.5-78.9,31.5c-45.4,0-86-30.6-98.7-74.3c-0.8-2.9,0.8-5.9,3.7-6.8c2.9-0.8,5.9,0.8,6.8,3.7
			c11.4,39.1,47.7,66.5,88.2,66.5c22.5,0,47.7-9.7,68.3-26c-6.9-11.3-14.7-22.3-22.2-32.9c-4.1-5.8-8.2-11.6-12.1-17.5
			c-1.1-1.6-1.2-3.7-0.4-5.5c0.9-1.8,2.6-2.9,4.5-3c58.4-3.8,121-8.8,183.4-20.2c1.7-0.3,3.4,0.2,4.7,1.4c1.3,1.2,1.9,2.9,1.7,4.6
			c-7.9,71.8-20,141-35.9,205.6c-0.5,1.9-1.9,3.4-3.8,3.9C316.6,477.3,316.1,477.4,315.6,477.4z"/>
	</g>
	<g>
		<path class="st1" d="M89.5,350.9c-2.3,0-4.5-1.5-5.2-3.9c-5.2-17.4-7.9-35.7-7.9-54.4c0-43.3,14.1-85.3,39.6-118.4
			c1.8-2.4,5.3-2.8,7.6-1c2.4,1.8,2.8,5.3,1,7.6c-24.1,31.2-37.3,70.9-37.3,111.7c0,17.7,2.5,34.9,7.4,51.2c0.9,2.9-0.8,5.9-3.6,6.8
			C90.6,350.8,90,350.9,89.5,350.9z"/>
	</g>
	<g>
		<path class="st1" d="M243.6,280.8c-0.7,0-1.5-0.2-2.2-0.5c-2.7-1.2-4-4.5-2.7-7.2c6.1-13.6,12-27.8,17.7-41.6
			c19.4-46.8,39.4-95,73.5-133.5c-26.3,4.2-54.4,11.6-77.7,28.7c-2.4,1.8-5.8,1.3-7.6-1.2c-1.8-2.4-1.2-5.8,1.2-7.6
			C275.7,96,312.2,89,343.9,85c2.3-0.3,4.6,0.9,5.6,3c1,2.1,0.6,4.6-1.1,6.3c-39.3,38.5-61,90.8-81.9,141.3
			c-5.7,13.8-11.7,28.2-17.9,41.9C247.7,279.6,245.7,280.8,243.6,280.8z"/>
	</g>
	<g>
		<path class="st1" d="M332.3,266.8c-0.6,0-1.2-0.1-1.8-0.3c-2.8-1-4.4-4.1-3.4-6.9c13.9-40.7,20.6-86.8,20.6-140.8
			c0-4.5,0-9-0.1-13.4c-0.1-3,2.3-5.5,5.3-5.6c3,0,5.5,2.3,5.6,5.3c0.1,4.5,0.1,9.1,0.1,13.6c0,55.2-6.9,102.4-21.2,144.3
			C336.7,265.4,334.6,266.8,332.3,266.8z"/>
	</g>
	<g>
		<path class="st1" d="M327.2,430.6c-1.5,0-2.9-0.6-4-1.7c-2-2.2-1.9-5.7,0.3-7.7c3.3-3.1,6.6-6.1,10-9.1
			c34.1-30.6,69.4-62.2,69.4-174.7c0-43.9-9.1-79.9-27.9-110c-1.6-2.6-0.8-5.9,1.7-7.5c2.6-1.6,5.9-0.8,7.5,1.7
			c19.9,32,29.6,69.8,29.6,115.8c0,117.4-38.8,152.1-73,182.8c-3.3,3-6.6,5.9-9.9,9C329.9,430.1,328.6,430.6,327.2,430.6z"/>
	</g>
	<g>
		<path class="st1" d="M172,298c-0.5,0-1-0.1-1.5-0.2c-29.9-8.5-60.6-10.4-89.6-5.4c-2.9,0.5-5.8-1.5-6.3-4.4
			c-0.5-3,1.5-5.8,4.4-6.3c30.6-5.3,63-3.3,94.4,5.7c2.9,0.8,4.6,3.8,3.7,6.7C176.5,296.4,174.4,298,172,298z"/>
	</g>
	<g>
		<path class="st1" d="M132.4,372.1c-2.6,0-4.8-1.8-5.3-4.4c-1.5-8-2.3-16.4-2.3-24.8c0-36.2,13.6-70.7,28.8-105.8
			c1.2-2.8,4.4-4,7.2-2.8c2.8,1.2,4,4.4,2.8,7.2c-14.7,34-27.9,67.4-27.9,101.5c0,7.8,0.7,15.5,2.1,22.8c0.6,3-1.4,5.8-4.3,6.4
			C133.1,372.1,132.8,372.1,132.4,372.1z"/>
	</g>
	<g>
		<path class="st1" d="M148,212.8c-0.8,0-1.6-0.2-2.3-0.5c-3.9-1.8-7.8-3.6-11.8-5.5c-14.9-6.9-30.4-13.9-44-22.5
			c-2.6-1.6-3.3-5-1.7-7.5c1.6-2.6,5-3.3,7.5-1.7c13.1,8.2,28.2,15.1,42.8,21.8c4,1.8,8,3.7,11.9,5.5c2.7,1.3,3.9,4.5,2.6,7.3
			C152,211.6,150,212.8,148,212.8z"/>
	</g>
	<g>
		<path class="st1" d="M291.4,278.7c-0.7,0-1.4-0.1-2.1-0.4c-30.3-12.5-61.7-25.5-92.6-39.4c-2.7-1.2-4-4.5-2.7-7.2
			c1.2-2.7,4.5-4,7.2-2.7c30.8,13.8,62.1,26.7,92.3,39.3c2.8,1.1,4.1,4.3,3,7.1C295.6,277.4,293.6,278.7,291.4,278.7z"/>
	</g>
	<g>
		<path class="st1" d="M429.4,359.9c-0.7,0-1.4-0.1-2.1-0.4c-23.5-9.9-46-23.2-67.7-36c-4.2-2.5-8.3-4.9-12.4-7.3
			c-2.6-1.5-3.5-4.9-2-7.5c1.5-2.6,4.9-3.5,7.5-2c4.1,2.4,8.3,4.9,12.5,7.3c21.4,12.6,43.6,25.7,66.4,35.4c2.8,1.2,4.1,4.4,2.9,7.1
			C433.5,358.7,431.5,359.9,429.4,359.9z"/>
	</g>
	<g>
		<path class="st1" d="M375,428.5c-1.8,0-3.5-0.9-4.5-2.4c-10.3-15.5-23.5-29.1-37.2-42.8c-2.1-2.1-2.1-5.6,0-7.7
			c2.1-2.1,5.6-2.1,7.7,0c14.1,14.1,27.7,28.1,38.6,44.4c1.7,2.5,1,5.9-1.5,7.6C377.1,428.2,376,428.5,375,428.5z"/>
	</g>
	<g>
		<path class="st1" d="M458.3,257.4c-0.1,0-0.2,0-0.3,0c-70.3-4.2-149.8-15.3-207.3-66.2c-2.3-2-2.5-5.4-0.5-7.7
			c2-2.3,5.4-2.5,7.7-0.5c55,48.6,132.3,59.4,200.7,63.5c3,0.2,5.3,2.8,5.1,5.8C463.5,255.2,461.1,257.4,458.3,257.4z"/>
	</g>
	<g>
		<path class="st1" d="M399.1,185.9c-79.8,0-122.8-59.4-122.8-115.3c0-1.6,0-3.3,0.1-4.9c0.1-3,2.7-5.3,5.7-5.2
			c3,0.1,5.3,2.7,5.2,5.7c-0.1,1.5-0.1,2.9-0.1,4.4c0,50.6,39.2,104.4,111.9,104.4c13.2,0,27.3-1.7,42-4.9c2.9-0.7,5.8,1.2,6.5,4.1
			c0.7,2.9-1.2,5.8-4.1,6.5C428,184.2,413.1,185.9,399.1,185.9z"/>
	</g>
</g>
</svg>
